<svg width="22" height="23" viewBox="0 0 22 23" fill="none" xmlns="http://www.w3.org/2000/svg">
<path fill-rule="evenodd" clip-rule="evenodd" d="M10.8287 0.76001C5.01766 0.76001 0.320007 5.80166 0.320007 12.0389C0.320007 17.0246 3.32996 21.2449 7.50555 22.7386C8.02761 22.8509 8.21884 22.4959 8.21884 22.1973C8.21884 21.9358 8.20163 21.0396 8.20163 20.1057C5.27837 20.7781 4.66962 18.7612 4.66962 18.7612C4.19984 17.454 3.50376 17.1181 3.50376 17.1181C2.54698 16.4272 3.57345 16.4272 3.57345 16.4272C4.63478 16.5019 5.19168 17.5849 5.19168 17.5849C6.13104 19.3027 7.64473 18.8174 8.25369 18.5185C8.34059 17.7902 8.61915 17.2861 8.91492 17.006C6.5834 16.7445 4.13036 15.7736 4.13036 11.4412C4.13036 10.2087 4.54766 9.20041 5.20889 8.41621C5.10456 8.13617 4.7391 6.97819 5.31343 5.42834C5.31343 5.42834 6.20073 5.12951 8.20142 6.58609C9.05798 6.3392 9.94134 6.21361 10.8287 6.21255C11.716 6.21255 12.6205 6.3434 13.4558 6.58609C15.4567 5.12951 16.344 5.42834 16.344 5.42834C16.9183 6.97819 16.5526 8.13617 16.4483 8.41621C17.1269 9.20041 17.527 10.2087 17.527 11.4412C17.527 15.7736 15.074 16.7258 12.7251 17.006C13.1079 17.3608 13.4383 18.0329 13.4383 19.0974C13.4383 20.6099 13.4211 21.8238 13.4211 22.1971C13.4211 22.4959 13.6126 22.8509 14.1344 22.7388C18.31 21.2447 21.32 17.0246 21.32 12.0389C21.3372 5.80166 16.6223 0.76001 10.8287 0.76001Z" fill="white"/>
</svg>
