<svg width="22" height="23" viewBox="0 0 22 23" fill="none" xmlns="http://www.w3.org/2000/svg">
<path d="M10.9601 22.5598C4.99305 22.5598 0.160126 17.7269 0.160126 11.7598C0.160126 5.7927 4.99305 0.959778 10.9601 0.959778C16.9272 0.959778 21.7601 5.7927 21.7601 11.7598C21.7601 17.7269 16.9272 22.5598 10.9601 22.5598Z" fill="#F2F2F2"/>
<g clip-path="url(#clip0_1_36)">
<path d="M5.36361 17.16H7.42543V12.1528L4.47997 9.94366V16.2764C4.47997 16.7653 4.87614 17.16 5.36361 17.16Z" fill="#4285F4"/>
<path d="M14.4938 17.1599H16.5556C17.0445 17.1599 17.4392 16.7637 17.4392 16.2763V9.94354L14.4938 12.1526" fill="#34A853"/>
<path d="M14.4938 8.32322V12.1523L17.4392 9.94322V8.76503C17.4392 7.67227 16.1918 7.04931 15.3185 7.70467" fill="#FBBC04"/>
<path d="M7.42525 12.1526V8.32355L10.9598 10.9745L14.4943 8.32355V12.1526L10.9598 14.8035" fill="#EA4335"/>
<path d="M4.47997 8.76528V9.94346L7.42543 12.1526V8.32346L6.6007 7.70491C5.7259 7.04955 4.47997 7.67251 4.47997 8.76528Z" fill="#C5221F"/>
</g>
<defs>
<clipPath id="clip0_1_36">
<rect width="12.96" height="9.72" fill="white" transform="translate(4.47997 7.43976)"/>
</clipPath>
</defs>
</svg>
