<svg width="22" height="23" viewBox="0 0 22 23" fill="none" xmlns="http://www.w3.org/2000/svg">
<path d="M10.9601 22.5598C4.99304 22.5598 0.160122 17.7269 0.160122 11.7598C0.160122 5.7927 4.99304 0.959778 10.9601 0.959778C16.9272 0.959778 21.7601 5.7927 21.7601 11.7598C21.7601 17.7269 16.9272 22.5598 10.9601 22.5598Z" fill="#2D9CDB"/>
<path d="M8.30282 9.35608H6.06833V16.5757H8.30282V9.35608Z" fill="white"/>
<path d="M7.1767 8.41613C7.9046 8.41613 8.49708 7.81524 8.49708 7.08734C8.49708 6.35944 7.9046 5.75854 7.1767 5.75854C6.4488 5.75854 5.85633 6.35944 5.85633 7.08734C5.85633 7.81524 6.4488 8.41613 7.1767 8.41613Z" fill="white"/>
<path d="M11.8747 12.792C11.8747 11.7763 12.3402 11.1754 13.2374 11.1754C14.0584 11.1754 14.4562 11.7594 14.4562 12.792V16.5838H16.6822V12.0133C16.6822 10.0835 15.5904 9.1441 14.0584 9.1441C12.5264 9.1441 11.8832 10.3374 11.8832 10.3374V9.36407H9.7418V16.5838H11.8832V12.792H11.8747Z" fill="white"/>
</svg>
